# xmcd
#
# Track frame offsets: 
#        150
#        21745
#        44005
#        67435
#        92408
#        112646
#        131118
#        154438
#        178379
#        202451
#
# Disc length: 3068 seconds
#
# Revision: 0
# Processed by: cddbd v1.5.2PL0 Copyright (c) Steve Scherf et al.
# Submitted via: ExactAudioCopy v0.99pb5
#
DISCID=a30bfa0a
DTITLE=Ermy Kullit - Untukmu
DYEAR=2005
DGENRE=Blues
TTITLE0=Sinaran
TTITLE1=Untukmu
TTITLE2=Dia
TTITLE3=Menggapai Bahagia
TTITLE4=Didadaku ada kamu
TTITLE5=Cerita Lama
TTITLE6=Layu sebelum berkembang
TTITLE7=Mulanya biasa saja
TTITLE8=Sampai Menutup mata
TTITLE9=Jerat
EXTD=
EXTT0=
EXTT1=
EXTT2=
EXTT3=
EXTT4=
EXTT5=
EXTT6=
EXTT7=
EXTT8=
EXTT9=
PLAYORDER=
